<mxfile host="app.diagrams.net" modified="2024-06-29T04:22:38.581Z" agent="Mozilla/5.0 (Windows NT 10.0; Win64; x64) AppleWebKit/537.36 (KHTML, like Gecko) Chrome/126.0.0.0 Safari/537.36" etag="uhVfsx5WgLqoVKKCDcl0" version="24.6.4" type="github">
  <diagram name="Página-1" id="89QGRrR2D6Izreq9-5I8">
    <mxGraphModel dx="1050" dy="557" grid="1" gridSize="10" guides="1" tooltips="1" connect="1" arrows="1" fold="1" page="1" pageScale="1" pageWidth="827" pageHeight="1169" math="0" shadow="0">
      <root>
        <mxCell id="0" />
        <mxCell id="1" parent="0" />
        <mxCell id="9Up1UgI-R_8WNiXEYDOR-1" value="&lt;b&gt;VEHÍCULO&lt;/b&gt;" style="rounded=1;whiteSpace=wrap;html=1;" parent="1" vertex="1">
          <mxGeometry x="360" y="200" width="120" height="200" as="geometry" />
        </mxCell>
        <mxCell id="9Up1UgI-R_8WNiXEYDOR-2" value="" style="strokeWidth=2;html=1;shape=mxgraph.flowchart.terminator;whiteSpace=wrap;rotation=90;fillColor=#383838;" parent="1" vertex="1">
          <mxGeometry x="315" y="220" width="60" height="30" as="geometry" />
        </mxCell>
        <mxCell id="9Up1UgI-R_8WNiXEYDOR-3" value="" style="strokeWidth=2;html=1;shape=mxgraph.flowchart.terminator;whiteSpace=wrap;rotation=90;fillColor=#383838;" parent="1" vertex="1">
          <mxGeometry x="315" y="350" width="60" height="30" as="geometry" />
        </mxCell>
        <mxCell id="9Up1UgI-R_8WNiXEYDOR-4" value="" style="strokeWidth=2;html=1;shape=mxgraph.flowchart.terminator;whiteSpace=wrap;rotation=90;fillColor=#383838;" parent="1" vertex="1">
          <mxGeometry x="466" y="221" width="60" height="30" as="geometry" />
        </mxCell>
        <mxCell id="9Up1UgI-R_8WNiXEYDOR-5" value="" style="strokeWidth=2;html=1;shape=mxgraph.flowchart.terminator;whiteSpace=wrap;rotation=90;fillColor=#383838;" parent="1" vertex="1">
          <mxGeometry x="466" y="350" width="60" height="30" as="geometry" />
        </mxCell>
        <mxCell id="9Up1UgI-R_8WNiXEYDOR-6" value="" style="rounded=0;whiteSpace=wrap;html=1;fillColor=#dae8fc;strokeColor=#6c8ebf;" parent="1" vertex="1">
          <mxGeometry x="382" y="150" width="78" height="40" as="geometry" />
        </mxCell>
        <mxCell id="9Up1UgI-R_8WNiXEYDOR-7" value="" style="rounded=0;whiteSpace=wrap;html=1;fillColor=#f8cecc;strokeColor=#b85450;" parent="1" vertex="1">
          <mxGeometry x="360" y="410" width="24" height="40" as="geometry" />
        </mxCell>
        <mxCell id="9Up1UgI-R_8WNiXEYDOR-8" value="" style="rounded=0;whiteSpace=wrap;html=1;fillColor=#f8cecc;strokeColor=#b85450;" parent="1" vertex="1">
          <mxGeometry x="456" y="410" width="24" height="40" as="geometry" />
        </mxCell>
        <mxCell id="9Up1UgI-R_8WNiXEYDOR-9" value="SENSORES DE ULTRASONIDO" style="rounded=0;whiteSpace=wrap;html=1;fontStyle=1" parent="1" vertex="1">
          <mxGeometry x="371" y="500" width="99" height="40" as="geometry" />
        </mxCell>
        <mxCell id="9Up1UgI-R_8WNiXEYDOR-10" value="&lt;b&gt;CÁMARA&lt;/b&gt;" style="rounded=0;whiteSpace=wrap;html=1;" parent="1" vertex="1">
          <mxGeometry x="532" y="150" width="78" height="40" as="geometry" />
        </mxCell>
        <mxCell id="9Up1UgI-R_8WNiXEYDOR-11" value="" style="endArrow=classic;html=1;rounded=0;" parent="1" edge="1">
          <mxGeometry width="50" height="50" relative="1" as="geometry">
            <mxPoint x="430" y="490" as="sourcePoint" />
            <mxPoint x="450" y="460" as="targetPoint" />
          </mxGeometry>
        </mxCell>
        <mxCell id="9Up1UgI-R_8WNiXEYDOR-12" value="" style="endArrow=classic;html=1;rounded=0;" parent="1" edge="1">
          <mxGeometry width="50" height="50" relative="1" as="geometry">
            <mxPoint x="410" y="490" as="sourcePoint" />
            <mxPoint x="390" y="460" as="targetPoint" />
          </mxGeometry>
        </mxCell>
        <mxCell id="9Up1UgI-R_8WNiXEYDOR-14" value="" style="endArrow=classic;html=1;rounded=0;" parent="1" edge="1">
          <mxGeometry width="50" height="50" relative="1" as="geometry">
            <mxPoint x="520" y="170" as="sourcePoint" />
            <mxPoint x="470" y="170" as="targetPoint" />
          </mxGeometry>
        </mxCell>
        <mxCell id="_aKmSkpjsozRwSnuDIwv-1" value="" style="rounded=0;whiteSpace=wrap;html=1;fillColor=#f8cecc;strokeColor=#b85450;rotation=90;" vertex="1" parent="1">
          <mxGeometry x="408" y="100" width="24" height="40" as="geometry" />
        </mxCell>
        <mxCell id="_aKmSkpjsozRwSnuDIwv-2" value="SENSOR DE ULTRASONIDO" style="rounded=0;whiteSpace=wrap;html=1;fontStyle=1" vertex="1" parent="1">
          <mxGeometry x="532" y="100" width="99" height="40" as="geometry" />
        </mxCell>
        <mxCell id="_aKmSkpjsozRwSnuDIwv-3" value="" style="endArrow=classic;html=1;rounded=0;" edge="1" parent="1">
          <mxGeometry width="50" height="50" relative="1" as="geometry">
            <mxPoint x="521" y="119.5" as="sourcePoint" />
            <mxPoint x="450" y="120" as="targetPoint" />
          </mxGeometry>
        </mxCell>
      </root>
    </mxGraphModel>
  </diagram>
</mxfile>
